<?xml version="1.0" standalone="no"?>
<!DOCTYPE svg PUBLIC "-//W3C//DTD SVG 20010904//EN"
 "http://www.w3.org/TR/2001/REC-SVG-20010904/DTD/svg10.dtd">
<svg version="1.0" xmlns="http://www.w3.org/2000/svg"
 width="256.000000pt" height="256.000000pt" viewBox="0 0 256.000000 256.000000"
 preserveAspectRatio="xMidYMid meet">
<metadata>
Created by potrace 1.14, written by Peter Selinger 2001-2017
</metadata>
<g transform="translate(0.000000,256.000000) scale(0.100000,-0.100000)"
fill="#000000" stroke="none">
<path d="M1005 2549 c-250 -37 -479 -152 -660 -334 -266 -265 -386 -626 -331
-995 50 -328 232 -614 510 -801 l58 -39 -61 0 c-92 0 -101 -13 -101 -145 l0
-105 -64 0 c-96 0 -96 0 -96 91 l0 79 34 0 c39 0 60 20 51 48 -7 25 -33 32
-118 32 -104 0 -107 -6 -107 -184 0 -80 4 -156 10 -171 l10 -25 1042 2 1043 3
51 27 c81 43 112 87 199 295 76 180 80 191 80 263 -1 96 -20 134 -122 241 -64
67 -81 80 -104 77 -20 -2 -33 5 -49 25 l-22 28 26 92 c42 150 49 216 43 386
-4 125 -10 174 -31 249 -60 216 -161 390 -315 540 -51 49 -70 62 -90 60 -50
-6 -37 -38 49 -126 140 -143 234 -309 287 -511 22 -82 26 -118 26 -251 1 -170
-10 -238 -62 -380 -96 -263 -288 -478 -538 -604 l-73 -36 -409 0 -410 0 -56
25 c-150 66 -339 224 -432 360 -130 193 -193 397 -193 630 0 493 326 919 805
1052 68 19 124 26 232 30 222 9 370 -23 556 -120 105 -54 132 -56 132 -7 0 19
-17 32 -89 71 -213 114 -479 162 -711 128z m1325 -2161 c0 -4 -129 -8 -287 -7
-227 0 -284 3 -269 12 71 44 182 137 237 196 l64 70 128 -131 c70 -72 127
-135 127 -140z m24 -145 c-19 -43 -39 -82 -45 -87 -5 -6 -9 18 -9 65 l0 75 38
11 c20 6 40 11 44 12 4 0 -8 -34 -28 -76z m-1634 -28 l0 -85 -110 0 -110 0 0
85 0 85 110 0 110 0 0 -85z m300 0 l0 -85 -110 0 -110 0 0 85 0 85 110 0 110
0 0 -85z m300 0 l0 -85 -110 0 -110 0 0 85 0 85 110 0 110 0 0 -85z m300 0 l0
-85 -110 0 -110 0 0 85 0 85 110 0 110 0 0 -85z m300 0 l0 -85 -110 0 -110 0
0 85 0 85 110 0 110 0 0 -85z m300 0 l0 -85 -110 0 -110 0 0 85 0 85 110 0
110 0 0 -85z"/>
<path d="M1011 2395 c-124 -27 -229 -93 -268 -169 -58 -112 95 -339 295 -438
94 -46 163 -45 263 4 129 64 257 200 294 314 14 43 15 59 5 95 -15 55 -76 116
-151 152 -113 53 -301 71 -438 42z m316 -79 c29 -8 72 -24 96 -35 43 -21 105
-76 96 -85 -3 -3 -39 6 -81 19 -189 60 -393 58 -563 -6 -31 -12 -58 -19 -61
-17 -2 3 4 16 15 29 25 32 104 75 172 93 70 19 258 20 326 2z m-26 -146 c30
-6 78 -17 107 -25 l53 -16 -18 -30 c-32 -55 -141 -156 -198 -184 -84 -42 -151
-24 -251 68 -48 43 -114 125 -114 140 0 8 88 35 145 46 69 12 212 13 276 1z"/>
<path d="M478 2045 c-52 -13 -63 -20 -126 -79 -118 -111 -206 -361 -187 -533
8 -80 53 -170 97 -199 46 -31 93 -36 170 -20 89 19 128 40 128 69 0 17 10 28
35 40 20 10 37 12 40 7 13 -22 45 -7 97 43 96 92 120 169 94 297 -20 98 -84
225 -148 295 -75 82 -120 101 -200 80z m42 -69 c0 -3 -22 -34 -50 -71 -105
-138 -157 -292 -167 -489 -6 -117 -6 -118 -24 -95 -89 117 -20 445 124 589 44
45 117 86 117 66z m80 -131 c82 -119 118 -250 87 -312 -34 -64 -193 -174 -232
-159 -12 4 -15 26 -15 110 0 152 33 290 87 369 14 20 29 37 34 37 4 0 22 -20
39 -45z"/>
<path d="M1774 2050 c-70 -16 -148 -99 -209 -223 -71 -144 -84 -264 -39 -355
54 -109 227 -225 382 -257 120 -25 187 6 233 107 21 47 24 67 23 178 0 112 -4
134 -31 212 -79 226 -229 368 -359 338z m95 -89 c104 -54 198 -226 222 -408
10 -76 9 -97 -5 -153 -9 -36 -25 -73 -35 -83 -18 -18 -18 -15 -23 115 -4 116
-9 145 -37 228 -35 104 -69 168 -136 260 -48 64 -46 71 14 41z m6 -226 c49
-103 70 -184 81 -304 l7 -84 -38 6 c-61 10 -178 71 -228 118 -54 52 -69 96
-56 165 11 61 66 178 104 223 l29 34 29 -34 c16 -19 48 -74 72 -124z"/>
<path d="M1134 1499 c-84 -23 -103 -134 -33 -193 99 -84 238 58 152 154 -33
36 -76 50 -119 39z"/>
<path d="M595 1145 c-38 -8 -104 -31 -145 -52 -64 -32 -78 -45 -98 -83 -50
-96 -2 -232 127 -361 130 -130 274 -200 416 -203 97 -1 149 23 186 88 22 37
24 53 24 166 0 149 -22 233 -86 328 -33 51 -51 67 -103 92 -54 27 -77 32 -157
35 -58 3 -121 -1 -164 -10z m237 -135 c67 -19 120 -111 135 -232 5 -40 3 -48
-11 -48 -26 0 -126 54 -193 105 -60 44 -153 141 -153 158 0 25 150 36 222 17z
m-260 -246 c90 -84 201 -151 316 -191 54 -18 99 -33 102 -34 22 -3 -46 -18
-86 -18 -201 -3 -493 236 -494 403 l0 39 49 -69 c26 -38 77 -96 113 -130z"/>
<path d="M1489 1147 c-101 -23 -165 -80 -212 -188 -38 -85 -52 -156 -52 -264
0 -87 3 -107 25 -150 14 -27 40 -60 58 -72 202 -133 692 185 692 449 0 72 -18
109 -72 148 -93 68 -312 106 -439 77z m239 -142 c35 -8 72 -20 83 -26 19 -10
19 -11 2 -41 -35 -59 -161 -176 -226 -207 -68 -33 -191 -65 -215 -56 -31 11 8
211 56 282 38 60 165 80 300 48z m199 -90 c-23 -167 -270 -377 -461 -392 -101
-9 -162 16 -78 32 60 11 177 64 257 116 88 57 177 144 234 228 23 33 44 61 48
61 3 0 3 -20 0 -45z"/>
</g>
</svg>
